<svg height="512" viewBox="0 0 64 64" width="512" xmlns="http://www.w3.org/2000/svg"><path d="M50.969 20.011H4.008v39.99H49.989a1 1 0 001-1v-38.99z" fill="#656d78"/><path d="M1.019 20.011v38.99c0 .553.446.999.999 1h1.99v-39.99z" fill="#545c66"/><path d="M56.975 14.005H10.014v39.99H55.995a1 1 0 001-1v-38.99z" fill="#434a54"/><path d="M7.024 14.005v38.99c0 .553.446.999.999 1h1.99v-39.99z" fill="#353b44"/><path d="M62.98 7.999H16.02v39.99H62a1 1 0 001-1V7.999z" fill="#656d78"/><path d="M1 17.999c0-1.11.89-2 2-2h4.01v4H1zM6.99 11.999c0-1.1.899-2 2-2h4.04v4H6.99zM62.98 5.999v2H13.01v-2a2 2 0 012-2h45.97c1.11 0 2 .89 2 2z" fill="#aab2bd"/><g fill="#ccd1d9"><path d="M10.023 13.003c-.553 0-1.005-.447-1.005-1s.442-1 .994-1h.011a1 1 0 110 2zM4.029 18.997c-.553 0-1.005-.447-1.005-1s.442-1 .994-1h.011a1 1 0 110 2zM16.046 6.997c-.553 0-1.005-.447-1.005-1s.442-1 .994-1h.011a1 1 0 110 2zM19.046 6.997c-.553 0-1.005-.447-1.005-1s.442-1 .994-1h.011a1 1 0 110 2zM22.046 6.997c-.553 0-1.005-.447-1.005-1s.442-1 .994-1h.011a1 1 0 110 2z"/></g><path d="M39.021 12.993H20.02a1 1 0 110-2h19.002a1 1 0 11-.001 2z" fill="#5d9cec"/><path d="M42.021 16.993H22.02a1 1 0 110-2h20.002a1 1 0 11-.001 2zM36.023 41.009H22.02a1 1 0 110-2h14.004a1 1 0 11-.001 2zM48.021 16.993h-2a1 1 0 110-2h2a1 1 0 110 2z" fill="#a0d468"/><path d="M26.02 44.997h-6a1 1 0 110-2h6a1 1 0 110 2z" fill="#5d9cec"/><path d="M28.02 20.993h-4a1 1 0 110-2h4a1 1 0 110 2zM53.021 20.993H32.02a1 1 0 110-2h21.002a1 1 0 11-.001 2z" fill="#ed5565"/><path d="M47.523 24.993H24.521a1 1 0 110-2h23.002a1 1 0 110 2z" fill="#ffce54"/><path d="M37.021 28.993H24.02a1 1 0 110-2h13.002a1 1 0 11-.001 2z" fill="#e6e9ed"/><path d="M46.03 37.001H24.02a1 1 0 110-2h22.01a1 1 0 110 2z" fill="#ed5565"/><path d="M49.525 32.993H31.522a1 1 0 110-2h18.003a1 1 0 110 2zM27.522 32.993h-3.001a1 1 0 110-2h3.001a1 1 0 110 2zM55.021 24.993h-4a1 1 0 110-2h4a1 1 0 110 2z" fill="#ffce54"/><path d="M13.03 7.999v38.99c0 .553.446.999.999 1h1.99V7.999z" fill="#545c66"/></svg>