<svg version="1.1" id="圖層_1" xmlns="http://www.w3.org/2000/svg" xmlns:xlink="http://www.w3.org/1999/xlink" x="0" y="0" viewBox="0 0 500 500" xml:space="preserve"><style>.st1,.st2{stroke:#fff;stroke-width:4;stroke-linejoin:round}.st2{stroke-linecap:round}</style><defs><path id="SVGID_1_" d="M164 324l320 163V4L324 164 4 4v480"/></defs><use xlink:href="#SVGID_1_"/><clipPath id="SVGID_2_"><use xlink:href="#SVGID_1_"/></clipPath><g transform="translate(4 4)" clip-path="url(#SVGID_2_)"><path class="st1" d="M286 342l-12 13-19-10 13-12 18 9zm-40-20l-12 13-11-6-11-5 13-13 10 6 11 5z"/><path class="st1" d="M225 311l-13 13-11-6-10-5-11-6 12-12 11 5 11 6 11 5z"/><path class="st1" d="M192 295l-12 12-22-10 13-13 10 6 11 5z"/><path class="st1" d="M171 284l-13 13-11-6-10-5 12-13 11 6 11 5zM-2 198l-13 12-11-5-10-6 12-12 11 5 11 6z"/><path class="st1" d="M19 209L7 221l-11-5-11-6 13-12 11 5 10 6z"/><path class="st1" d="M41 219l-13 13-10-6-11-5 12-12 11 5 11 5z"/><path class="st1" d="M149 273l-12 13-11-6-22-10-11-6-10-5-11-6-22-10-11-6-11-5 13-13 11 6 11 5 10 6 22 10 11 6 11 5 10 6 11 5 11 5zm193 97l-12 12-19-9 13-12 18 9zm-127-82l-12 12-22-10 13-13 11 6 10 5z"/><path class="st1" d="M194 277l-13 13-10-6-11-5 12-13 11 6 11 5z"/><path class="st1" d="M172 266l-12 13-11-6-11-5 9-14 14 7 11 5z"/><path class="st1" d="M147 254l-9 14-11-5-10-6 12-12 11 5 7 4z"/><path class="st1" d="M129 245l-12 12-11-5-11-6 12-12 11 5 11 6z"/><path class="st1" d="M107 234l-12 12-22-10 13-13 11 6 10 5z"/><path class="st1" d="M86 223l-13 13-10-6-11-5 12-13 11 6 11 5z"/><path class="st1" d="M64 212l-12 13-11-6-11-5 13-12 10 5 11 5z"/><path class="st1" d="M43 202l-13 12-11-5-10-6 12-12 11 5 11 6z"/><path class="st1" d="M21 191L9 203l-11-5-11-6 12-12 11 5 11 6z"/><path class="st1" d="M-1 180l-12 12-22-10-11-6-10-5-11-6 12-12 11 5 11 6 11 5 10 6 11 5zm260 130l-13 12-11-5-10-6-11-5-11-6 12-12 11 5 11 6 11 5 11 6zm96 48l-13 12-18-9 12-13 19 10zM348 336l-12 12-19-9 13-12 18 9z"/><path class="st1" d="M330 327l-13 12-18-9 12-13 19 10z"/><path class="st1" d="M311 317l-12 13-19-10 13-12 18 9zM305 296l-12 12-11-5-11-6-11-5-11-6 13-12 11 5 10 6 11 5 11 6z"/><path class="st1" d="M262 274l-13 12-10-5-11-5 12-13 11 6 11 5z"/><path class="st1" d="M240 263l-12 13-11-6-11-5 13-13 10 6 11 5z"/><path class="st1" d="M219 252l-13 13-11-6-10-5 12-12 11 5 11 5z"/><path class="st1" d="M197 242l-12 12-11-5-11-6 12-12 11 5 11 6z"/><path class="st1" d="M175 231l-12 12-11-5-11-6 13-12 11 5 10 6z"/><path class="st1" d="M154 220l-13 12-10-5-11-5 12-13 11 6 11 5z"/><path class="st1" d="M132 209l-12 13-11-6-11-5 13-13 10 6 11 5z"/><path class="st1" d="M111 198l-13 13-11-6-10-5 12-12 11 5 11 5z"/><path class="st1" d="M89 188l-12 12-11-5-11-6 12-12 11 5 11 6z"/><path class="st1" d="M67 177l-12 12-11-5-11-6 13-12 11 5 10 6z"/><path class="st1" d="M46 166l-13 12-10-5-11-5 12-13 11 6 11 5z"/><path class="st1" d="M24 155l-12 13-11-6-11-5 13-13 10 6 11 5zm293 128l-12 13-11-6-11-5-10-6-22-10 12-13 11 6 22 10 11 6 10 5z"/><path class="st1" d="M263 256l-12 13-11-6-11-5 13-13 11 6 10 5z"/><path class="st1" d="M242 245l-13 13-10-6-11-5 12-12 11 5 11 5z"/><path class="st1" d="M220 235l-12 12-11-5-11-6 13-12 10 5 11 6z"/><path class="st1" d="M199 224l-13 12-11-5-10-6 12-12 11 5 11 6z"/><path class="st1" d="M177 213l-12 12-22-10 12-13 11 6 11 5z"/><path class="st1" d="M155 202l-12 13-11-6-11-5 13-13 11 6 10 5z"/><path class="st1" d="M134 191l-13 13-10-6-11-5 12-12 11 5 11 5z"/><path class="st1" d="M112 181l-12 12-11-5-11-6 13-12 10 5 11 6z"/><path class="st1" d="M91 170l-13 12-11-5-10-6 12-12 11 5 11 6z"/><path class="st1" d="M69 159l-12 12-22-10 12-13 11 6 11 5z"/><path class="st1" d="M47 148l-12 13-11-6-11-5 13-13 11 6 10 5zm-44-4l-13 13-11-6-11-5-10-5 12-13 11 6 11 5 11 5zm284 105l-13 13-11-6-10-5 12-13 11 6 11 5z"/><path class="st1" d="M308 260l-12 12-22-10 13-13 10 6 11 5z"/><path class="st1" d="M330 271l-13 12-10-5-11-6 12-12 11 5 11 6z"/><path class="st1" d="M348 280l-12 13-19-10 13-12 18 9z"/><path class="st1" d="M367 289l-12 13-19-9 12-13 19 9z"/><path class="st1" d="M386 299l-13 12-18-9 12-13 19 10z"/><path class="st1" d="M404 308l-12 12-19-9 13-12 18 9zm-139-70l-12 13-11-6-11-5 12-12 11 5 11 5z"/><path class="st1" d="M243 228l-12 12-11-5-11-6 13-12 11 5 10 6z"/><path class="st1" d="M222 217l-13 12-10-5-11-6 12-12 11 5 11 6z"/><path class="st1" d="M200 206l-12 12-22-10 13-13 10 6 11 5z"/><path class="st1" d="M179 195l-13 13-11-6-10-5 12-13 11 6 11 5z"/><path class="st1" d="M157 184l-12 13-11-6-11-5 12-12 11 5 11 5z"/><path class="st1" d="M135 174l-12 12-11-5-11-6 13-12 11 5 10 6z"/><path class="st1" d="M114 163l-13 12-10-5-11-6 12-12 11 5 11 6z"/><path class="st1" d="M92 152l-12 12-22-10 13-13 10 6 11 5z"/><path class="st1" d="M71 141l-13 13-11-6-10-5 12-13 11 6 11 5z"/><path class="st1" d="M49 130l-12 13-11-6-11-5 12-12 11 5 11 5z"/><path class="st1" d="M27 120l-12 12-11-5-11-6-10-5 12-13 11 6 11 5 10 6z"/><path class="st2" d="M-80 184l428 214"/><path class="st1" d="M398 342l-25 25-18-9 12-13 12-12 19 9zm25-25l-13 13-18-10 12-12 19 9z"/><path class="st1" d="M410 330l-12 12-19-9 13-13 18 10zm-37 37l-25 25-18-10 25-24 18 9z"/><path class="st1" d="M392 320l-13 13-18-9 12-13 19 9z"/><path class="st1" d="M379 333l-12 12-19-9 13-12 18 9z"/><path class="st1" d="M361 324l-13 12-18-9 12-13 19 10z"/><path class="st1" d="M367 345l-12 13-19-10 12-12 19 9zm6-34l-12 13-19-10 13-12 18 9zm-49 50l-13 12-18-9-19-9 12-13 19 9 19 10zm12-68l-12 12-19-9 12-13 19 10z"/><path class="st1" d="M355 302l-13 12-18-9 12-12 19 9z"/><path class="st1" d="M342 314l-12 13-19-10 13-12 18 9z"/><path class="st1" d="M324 305l-13 12-18-9 12-12 19 9zM1 162l-12 13-11-6-11-5-11-6-11-5 13-12 10 5 11 5 11 6 11 5zm-25 25l-12 12-22-10-11-6-11-5 13-13 11 6 10 5 11 6 11 5zm28-60l-12 12-11-5-11-6 13-12 10 5 11 6z"/><path class="st1" d="M26 137l-13 13-10-6-11-5 12-12 11 5 11 5zm-3 36l-13 12-11-5-10-5 12-13 11 6 11 5z"/><path class="st1" d="M44 184l-12 12-11-5-11-6 13-12 10 5 11 6z"/><path class="st1" d="M66 195l-13 12-10-5-11-6 12-12 11 5 11 6z"/><path class="st1" d="M87 205l-12 13-11-6-11-5 13-12 11 5 10 5z"/><path class="st1" d="M109 216l-12 13-11-6-11-5 12-13 11 6 11 5z"/><path class="st1" d="M131 227l-13 12-11-5-10-5 12-13 11 6 11 5z"/><path class="st1" d="M152 238l-12 12-11-5-11-6 13-12 10 5 11 6z"/><path class="st1" d="M174 249l-13 12-14-7-7-4 12-12 11 5 11 6z"/><path class="st1" d="M195 259l-12 13-11-6-11-5 13-12 11 5 10 5z"/><path class="st1" d="M217 270l-12 13-11-6-11-5 12-13 11 6 11 5z"/><path class="st1" d="M239 281l-13 12-11-5-10-5 12-13 11 6 11 5z"/><path class="st1" d="M293 308l-13 12-11-5-10-5-11-6-11-5-11-6 13-12 10 5 11 6 11 5 11 6 11 5zm-25 25l-13 12-10-5-11-6 12-12 11 5 11 6zm68 15l-12 13-19-10 12-12 19 9z"/><path class="st1" d="M317 339l-12 12-19-9 13-12 18 9z"/><path class="st1" d="M299 330l-13 12-18-9 12-13 19 10z"/><path class="st1" d="M280 320l-12 13-11-6-11-5 13-12 10 5 11 5z"/><path class="st2" d="M348 397l75-74M-80 178v6M348 392v5m75-80v6M455 373l21-21M82-35V87l365 182V-18M86-39V83l355 178V-26M463 252V1m-16 268l16-16M343 252l-174-87m23-23l-23 23m197 64l-23 23"/><path class="st2" d="M355 24l-8-4m15 8l16 8 7 3 8 4M271-18l30 15 7 4 16 8 7 3 8 4m8 20l-16-8-7-3-16-8-7-4-24-12m124 62l8 4 7 4m-54-27l16 8 7 3 8 4m-62-15l16 8m62 31l-8-4m-8-4l-8-4-7-3-16-8-7-4m-31-15l-16-8m39 35l-16-8-7-3-8-4m39 19l7 4 16 8 7 4m16 7l-8-4m-85-42l-7-4-24-12m101 67l7 4 8 3 16 8m-78-38l8 3 16 8 7 4 8 4m-46-23l-16-8-7-4-16-8m23 28l16 8 7 4 8 3m16 8l-8-4m-16 9l-7-4-16-8m70 35l7 4 8 3 8 4m15 8l-7-4m-39-19l-8-4-7-4-16-8m31 32l-8-4-7-4-16-8-8-3m47 23l7 4 8 4 8 3 8 4m-85-42l-8-4m69 51l-7-4-16-8m-31-15l8 4 8 3 8 4m15 24l-8-4-7-4-8-4m-8-3l-8-4-7-4-8-4M3 273l-8-4m16 7l7 4 24 12m-122-61l14 7 7 4 8 4 8 3 7 4 24 12m7 20l-7-4-24-12-7-4-8-3-8-4-7-4-8-4m123 62l8 4 8 3m-54-27l7 4 24 12m-62-15l8 4 7 4m62 31l-8-4m-23-12l-8-4-7-4-8-3m-31-16l-8-4-7-4m38 36l-7-4-24-12m62 31l8 4M3 321l8 4m38 19l-7-4m-85-43l-8-3-8-4-7-4-8-4m100 66l16 8 7 4 8 4m-46-23l7 3m-38-19l8 4 7 4 8 4m-31-16l-8-4-7-3-16-8-7-4m23 28l7 3 24 12m15 8l-8-4m-15 8l-16-8-7-3m69 34l16 8 7 4m16 8l-8-4m-39-19l-7-4m-23 4l-8-4m23 12l-8-4m23 12l-7-4m38 19l8 4m-31-16l8 4m-62-31l-8-4m24 28l7 4 8 4m15 24l-7-4-16-8m-7-4l-16-8-8-3M-8 61v-1"/><path class="st1" d="M68 39c0 11-13 20-29 20s-29-9-29-20 13-19 29-19 29 8 29 19z"/><path class="st1" d="M68 39v41c0 11-13 20-29 20s-29-9-29-20V39c0 11 13 20 29 20s29-9 29-20z"/><path class="st1" d="M19 54c6.1 3.5 13 5.3 20 5l-20-5zM-29 37h21v38h-21V37zm3 266l-4 4c1.1-1.5 2.5-2.9 4-4z"/></g><g><path class="st2" d="M357 271l32-31m94-94l-16 16M484 335l-127-63M148 166l-90-45m88 41l-30-15m48 8l-89-45m88 41l-31-15m301 105L103 76m330-22v139"/></g></svg>
