<svg height="512" viewBox="0 0 64 64" width="512" xmlns="http://www.w3.org/2000/svg"><path d="M62.999 30c0 .55-.45 1-1 1h-38c-.55 0-1-.45-1-1V2c0-.55.45-1 1-1h38c.55 0 1 .45 1 1z" fill="#656d78"/><g fill="#e6e9ed"><path d="M39.997 13.996a1 1 0 01-1-1V9a1 1 0 112 0v3.996a1 1 0 01-1 1zM39.997 23.999a1 1 0 01-1-1v-3.998a1 1 0 112 0v3.998a1 1 0 01-1 1zM49 17.001h-4.004a1 1 0 110-2H49a1 1 0 110 2zM54 26a1 1 0 01-1-1v-6.999a1 1 0 112 0V25a1 1 0 01-1 1z"/><path d="M54 26h-9.004a1 1 0 110-2H54a1 1 0 110 2z"/></g><path d="M19 8.5v1.37c-1.72-2.24-2.76-2.65-4-2.39v-.01l1.99-4.06A7.42 7.42 0 0119 8.5z" fill="#f6bb42"/><path d="M16.99 3.41L15 7.47v.01c-1.87.38-4.19 2.33-10 1.65-.32-.04-.66-.09-1-.14V8.5C4 4.36 7.36 1 11.5 1c2.17 0 4.13.93 5.49 2.41z" fill="#ffce54"/><path d="M15 18.32v2.67l-1 1-2-1-2 1L9 21V18.31c.91.44 1.93.681 3 .681s2.09-.24 3-.681z" fill="#f5f7fa"/><path d="M5 11.99V9.13c5.81.68 8.13-1.27 10-1.649 1.24-.261 2.28.149 4 2.39V12c0 2.79-1.64 5.2-4 6.31-.91.44-1.93.681-3 .681s-2.09-.24-3-.681C6.64 17.2 5 14.79 5 12z" fill="#eac6bb"/><path d="M16.998 7.855V12c0 2.79-1.64 5.2-4 6.31a6.812 6.812 0 01-1.999.601c.328.048.661.08 1.001.08 1.07 0 2.09-.24 3-.681 2.36-1.109 4-3.52 4-6.31V9.87c-.781-1.017-1.419-1.643-2.002-2.015z" fill="#d3b1a9"/><path d="M5 31H1v-6c0-2.21 1.79-4 4-4h4l1 .99 2-1 2 1 1-1 8 .01h1c1.66 0 3-1.34 3-3a2 2 0 114 0c0 3.87-3.13 7-7 7h-5v6z" fill="#e6e9ed"/><path d="M54 52.001c5 0 7-4 7-4 0 2.79-1.64 5.2-4 6.31-.91.44-1.92.681-3 .681-1.07 0-2.09-.24-3-.681a6.972 6.972 0 01-4-6.31s2 4 7 4z" fill="#eac6bb"/><path d="M58 37.001v3c1.66 0 2.99 1.33 3 2.99v5.01s-2 4-7 4-7-4-7-4v-5.01a5.99 5.99 0 016-5.99z" fill="#965353"/><path d="M58.436 50.719a6.981 6.981 0 01-5.435 4.193c.327.048.659.08.999.08 1.08 0 2.09-.24 3-.681 2.36-1.109 4-3.52 4-6.31 0 0-.775 1.548-2.564 2.718z" fill="#d3b1a9"/><path d="M58 40.001v-3h-2.002v3h.001c.001 1.104.896 2 2.001 2 .555 0 .99.436.998.99v5.01a6.94 6.94 0 01-.563 2.718c1.79-1.17 2.565-2.718 2.565-2.718v-5.01a2.994 2.994 0 00-3-2.99z" fill="#844747"/><path d="M54 54.991c1.08 0 2.09-.24 3-.681v2.68h-6v-2.68c.91.441 1.93.681 3 .681z" fill="#87bcf4"/><path d="M63 59.99V63H45v-3.01c0-1.65 1.34-3 3-3V57h3v-.01h6V57h3v-.01c1.66 0 3 1.35 3 3z" fill="#5d9cec"/><path d="M54.998 56.99H57V57h-2.002zM60 56.99V57h-1.905a2.997 2.997 0 012.903 2.99V63H63v-3.01c0-1.65-1.34-3-3-3zM48 57v-.01c-.033 0-.063.009-.097.01z" fill="#4a89dc"/><path d="M29 56.99v-1.989h6v1.989l-3 1z" fill="#eac6bb"/><path d="M26 57h3v-.01l3 1 3-1V57h3v-.01c1.66 0 3 1.35 3 3V63H23v-3.01c0-1.65 1.34-3 3-3z" fill="#48cfad"/><path d="M38 56.99V57h-1.905a2.997 2.997 0 012.903 2.99V63H41v-3.01c0-1.65-1.34-3-3-3z" fill="#37bc9b"/><path d="M13 56.99H7v-2.68c.91.44 1.93.681 3 .681 1.08 0 2.09-.24 3-.681v.011z" fill="#f5f7fa"/><path d="M19 59.99V63H1v-3.01c0-1.65 1.34-3 3-3V57h3v-.01h6V57h3v-.01c1.66 0 3 1.35 3 3z" fill="#e6e9ed"/><path d="M4 57v-.01c-.033 0-.063.009-.097.01zM16 56.99V57h-1.905a2.997 2.997 0 012.903 2.99V63H19v-3.01c0-1.65-1.34-3-3-3z" fill="#ccd1d9"/><path d="M10 54.991c-1.07 0-2.09-.24-3-.681A6.972 6.972 0 013 48s2 4 7 4 7-4 7-4c0 2.79-1.64 5.2-4 6.31a6.83 6.83 0 01-3 .681z" fill="#eac6bb"/><path d="M17 47.991v.01s-2 4-7 4-7-4-7-4v-4.01c0-3.86 3.13-6.99 7-6.99s7 3.13 7 6.99z" fill="#656d78"/><path d="M14.436 50.719a6.981 6.981 0 01-5.435 4.193c.327.048.659.08.999.08 1.08 0 2.09-.24 3-.681 2.36-1.109 4-3.52 4-6.31 0 0-.775 1.548-2.564 2.718z" fill="#d3b1a9"/><path d="M10 37.001c-.339 0-.67.032-.996.079H9c3.394.487 5.998 3.391 5.998 6.911v4.01a6.94 6.94 0 01-.563 2.718c1.79-1.17 2.565-2.718 2.565-2.718v-4.01c0-3.86-3.13-6.99-7-6.99z" fill="#545c66"/><path d="M5 26.001a1 1 0 00-1 1V31h2v-3.999a1 1 0 00-1-1z" fill="#ccd1d9"/><path d="M42.996 4h-5.998c-1.654 0-3 1.346-3 3s1.346 3 3 3h5.998c1.654 0 3-1.346 3-3s-1.346-3-3-3zM42.996 21.999h-5.998c-1.654 0-3 1.346-3 3s1.346 3 3 3h5.998c1.654 0 3-1.346 3-3s-1.346-3-3-3z" fill="#fff"/><path d="M45.511 15.144l-4.999-3a1.005 1.005 0 00-1.029 0l-4.999 3a1 1 0 000 1.714l4.999 3a1 1 0 001.03 0l4.999-3a1 1 0 00-.001-1.714z" fill="#48cfad"/><path d="M59 13H49a1 1 0 00-1 1v4.001a1 1 0 001 1h10a1 1 0 001-1V14a1 1 0 00-1-1z" fill="#fff"/><path d="M32 36.041a9 9 0 00-9 9v8.955l-.001.005a1 1 0 001 1H40a1 1 0 001-1v-8.96a9 9 0 00-9-9z" fill="#ffce54"/><path d="M32 36.041c-.339 0-.672.022-1.001.059 4.498.499 7.999 4.311 7.999 8.941v8.96a1 1 0 01-1 1H40a1 1 0 001-1v-8.96a9 9 0 00-9-9z" fill="#f6bb42"/></svg>