<svg xmlns="http://www.w3.org/2000/svg" height="666.667" width="666.667"><defs><clipPath id="a"><path d="M0 500h500V0H0z"/></clipPath><clipPath id="b"><path d="M177.42 256.735H337.4v-108.73H177.42z"/></clipPath><clipPath id="c"><path d="M144.42 269.735H304.4v-108.73H144.42z"/></clipPath><clipPath id="d"><path d="M68.376 96.16H109V84.845H68.376z"/></clipPath><clipPath id="e"><path d="M417.285 105.502h55.599V90.176h-55.599z"/></clipPath><clipPath id="f"><path d="M406.671 202.266h23.918v-27.219h-23.918z"/></clipPath><clipPath id="g"><path d="M446.718 112.983h20.08v-21.23h-20.08z"/></clipPath><clipPath id="h"><path d="M386.78 188.852h40.148v-33.56H386.78z"/></clipPath><clipPath id="i"><path d="M140.846 188.503H368.12V48.833H140.846z"/></clipPath><clipPath id="j"><path d="M173.188 37.158h116.861V-.575H173.188z"/></clipPath><clipPath id="k"><path d="M180.605 156.693h99.312V75h-99.312z"/></clipPath><clipPath id="l"><path d="M236.427 115.359h5.28V0h-5.28z"/></clipPath></defs><g clip-path="url(#a)" transform="matrix(1.33333 0 0 -1.33333 0 666.667)"><path d="M133.624 115.409l-16.793-32.65.622-4.898 249.41-2.177v6.53l-17.416 33.738z" fill="#3f3e76"/><path d="M116.83 82.759l.622-4.897 249.41-2.177v6.53zm9.708 198.853l238.238 2.301-13.192-155-220.39 4.342-8.536 152.83" fill="#292951"/><path d="M123.067 286.159l-.41-.074 8.538-147.633 220.389-4.342 13.193 149.804z" fill="#3f3e76"/><path d="M131.97 280.267l223.494-2.004-12.178-138.28-203.436 4.007z" fill="#fff"/><g clip-path="url(#b)" opacity=".5"><path d="M336.96 148.445h-159.1v107.85h159.1z" fill="#fff" stroke="#888df4" stroke-width=".879" stroke-miterlimit="10"/><path d="M190.756 244.209h-8.239v3.566h8.239zm0-6.837h-8.239v3.566h8.239zm0-6.837h-8.239v3.566h8.239zm0-6.837h-8.239v3.566h8.239zm0-6.838h-8.239v3.566h8.239zm0-6.837h-8.239v3.566h8.239zm0-6.837h-8.239v3.566h8.239zm0-6.837h-8.239v3.566h8.239zm0-6.838h-8.239v3.566h8.239zm0-6.837h-8.239v3.565h8.239zm0-6.837h-8.239v3.566h8.239zm0-6.838h-8.239v3.566h8.239zm0-6.837h-8.239v3.566h8.239zm0-6.837h-8.239v3.566h8.239z" fill="#888df4"/><path d="M224.45 244.209h-14.419v3.566h14.419z" fill="#ffca75"/><path d="M296.104 244.209h-67.828v3.566h67.828z" fill="#888df4"/><path d="M222.463 237.372h-17.509v3.566h17.509z" fill="#ffca75"/><path d="M302.504 237.372H226.73v3.566h75.774z" fill="#888df4"/><path d="M247.255 230.535h-24.718v3.566h24.718z" fill="#ffca75"/><path d="M310.817 230.535h-60.03v3.566h60.03z" fill="#888df4"/><path d="M259.1 223.698h-23.688v3.566H259.1z" fill="#ffca75"/><path d="M323.765 223.698h-60.104v3.566h60.104z" fill="#888df4"/><path d="M228.974 216.86H211.98v3.566h16.994z" fill="#ffca75"/><path d="M301.989 216.86h-68.822v3.566h68.822z" fill="#888df4"/><path d="M219.153 210.023h-14.419v3.566h14.419z" fill="#ffca75"/><path d="M296.104 210.023h-73.125v3.566h73.125z" fill="#888df4"/><path d="M259.284 203.186H238.17v3.566h21.114z" fill="#ffca75"/><path d="M320.233 203.186h-56.168v3.566h56.168z" fill="#888df4"/><path d="M237.839 196.349h-24.718v3.566h24.718z" fill="#ffca75"/><path d="M307.874 196.349h-65.916v3.566h65.916z" fill="#888df4"/><path d="M269.914 189.511h-45.317v3.566h45.317z" fill="#ffca75"/><path d="M329.356 189.511h-55.322v3.566h55.322z" fill="#888df4"/><path d="M255.458 182.674h-33.473v3.565h33.473z" fill="#ffca75"/><path d="M316.114 182.674h-54.991v3.565h54.991z" fill="#888df4"/><path d="M246.078 175.837H213.12v3.566h32.958z" fill="#ffca75"/><path d="M310.228 175.837h-60.03v3.566h60.03z" fill="#888df4"/><path d="M234.455 168.999h-22.658v3.566h22.658z" fill="#ffca75"/><path d="M301.4 168.999h-61.943v3.566H301.4z" fill="#888df4"/><path d="M226.877 162.162h-21.629v3.566h21.629z" fill="#ffca75"/><path d="M314.348 162.162h-83.792v3.566h83.792z" fill="#888df4"/><path d="M266.089 155.325h-24.718v3.566h24.718z" fill="#ffca75"/><path d="M329.65 155.325h-58.853v3.566h58.853z" fill="#888df4"/><path d="M336.96 255.945h-159.1v-4.3h159.1z" fill="#888df4" stroke="#888df4" stroke-width=".176" stroke-miterlimit="10"/></g><path d="M144.86 161.445h159.1v107.85h-159.1z" fill="#fff"/><g clip-path="url(#c)" opacity=".5"><path d="M303.96 161.445h-159.1v107.85h159.1z" fill="#fff" stroke="#888df4" stroke-width=".879" stroke-miterlimit="10"/><path d="M157.756 257.209h-8.24v3.566h8.24zm0-6.837h-8.24v3.566h8.24zm0-6.837h-8.24v3.566h8.24zm0-6.837h-8.24v3.566h8.24zm0-6.838h-8.24v3.566h8.24zm0-6.837h-8.24v3.566h8.24zm0-6.837h-8.24v3.566h8.24zm0-6.837h-8.24v3.566h8.24zm0-6.838h-8.24v3.566h8.24zm0-6.837h-8.24v3.565h8.24zm0-6.837h-8.24v3.566h8.24zm0-6.838h-8.24v3.566h8.24zm0-6.837h-8.24v3.566h8.24zm0-6.837h-8.24v3.566h8.24z" fill="#888df4"/><path d="M191.45 257.209h-14.419v3.566h14.419z" fill="#ffca75"/><path d="M263.104 257.209h-67.828v3.566h67.828z" fill="#888df4"/><path d="M189.464 250.372h-17.509v3.566h17.509z" fill="#ffca75"/><path d="M269.504 250.372H193.73v3.566h75.774z" fill="#888df4"/><path d="M214.255 243.535h-24.718v3.566h24.718z" fill="#ffca75"/><path d="M277.817 243.535h-60.03v3.566h60.03z" fill="#888df4"/><path d="M226.1 236.698h-23.688v3.566H226.1z" fill="#ffca75"/><path d="M290.765 236.698h-60.104v3.566h60.104z" fill="#888df4"/><path d="M195.974 229.86H178.98v3.566h16.994z" fill="#ffca75"/><path d="M268.989 229.86h-68.822v3.566h68.822z" fill="#888df4"/><path d="M186.153 223.023h-14.419v3.566h14.419z" fill="#ffca75"/><path d="M263.104 223.023h-73.125v3.566h73.125z" fill="#888df4"/><path d="M226.284 216.186H205.17v3.566h21.114z" fill="#ffca75"/><path d="M287.233 216.186h-56.168v3.566h56.168z" fill="#888df4"/><path d="M204.839 209.349h-24.718v3.566h24.718z" fill="#ffca75"/><path d="M274.874 209.349h-65.916v3.566h65.916z" fill="#888df4"/><path d="M236.914 202.511h-45.317v3.566h45.317z" fill="#ffca75"/><path d="M296.356 202.511h-55.322v3.566h55.322z" fill="#888df4"/><path d="M222.458 195.674h-33.473v3.565h33.473z" fill="#ffca75"/><path d="M283.114 195.674h-54.991v3.565h54.991z" fill="#888df4"/><path d="M213.078 188.837H180.12v3.566h32.958z" fill="#ffca75"/><path d="M277.228 188.837h-60.03v3.566h60.03z" fill="#888df4"/><path d="M201.455 181.999h-22.658v3.566h22.658z" fill="#ffca75"/><path d="M268.4 181.999h-61.943v3.566H268.4z" fill="#888df4"/><path d="M193.877 175.162h-21.629v3.566h21.629z" fill="#ffca75"/><path d="M281.348 175.162h-83.792v3.566h83.792z" fill="#888df4"/><path d="M233.088 168.325H208.37v3.566h24.718z" fill="#ffca75"/><path d="M296.65 168.325h-58.853v3.566h58.853z" fill="#888df4"/><path d="M303.96 268.945h-159.1v-4.3h159.1z" fill="#888df4" stroke="#888df4" stroke-width=".176" stroke-miterlimit="10"/></g><g clip-path="url(#d)" opacity=".2"><path d="M68.376 90.502c0-3.125 9.094-5.658 20.312-5.658 11.219 0 20.313 2.533 20.313 5.658 0 3.124-9.094 5.657-20.313 5.657-11.218 0-20.312-2.533-20.312-5.657" fill="#000e23"/></g><path d="M73.901 130.01l1.7-38.209 32.584.643 2.604 37.432z" fill="#ffb85c"/><path d="M74.77 129.876c0-2.445 8.095-4.428 18.081-4.428 9.987 0 17.215 1.983 17.215 4.428s-7.228 4.427-17.215 4.427c-9.986 0-18.082-1.982-18.082-4.427" fill="#d98e3a"/><path d="M74.77 129.876c0-2.445 8.095-4.428 18.081-4.428 9.987 0 17.215 1.983 17.215 4.428s-7.228 4.427-17.215 4.427c-9.986 0-18.082-1.982-18.082-4.427z" fill="none" stroke="#ffb85c" stroke-width="1.791" stroke-miterlimit="10"/><path d="M75.601 92.07c0-2.445 8.396-5.18 16.904-5.18 8.51 0 15.68 3.108 15.68 5.554 0 2.445-6.897 4.427-15.406 4.427-8.508 0-17.178-2.356-17.178-4.8" fill="#ffb85c"/><path d="M64.559 112.246c0-5.42 4.395-9.815 9.815-9.815s9.816 4.394 9.816 9.815c0 5.421-4.395 9.815-9.816 9.815-5.42 0-9.815-4.394-9.815-9.815z" fill="none" stroke="#ffb85c" stroke-width="4.277" stroke-miterlimit="10"/><path d="M101.64 127.242v-14.723" fill="none" stroke="#92a0b1" stroke-width="1.069" stroke-linecap="round" stroke-miterlimit="10"/><path d="M101.64 116.2l-4.909-5.044.682-7.634 9.27.409.545 8.86z" fill="#fff"/><g clip-path="url(#e)" opacity=".2"><path d="M472.884 97.839c0-4.232-12.446-7.663-27.799-7.663-15.354 0-27.8 3.43-27.8 7.663 0 4.232 12.446 7.663 27.8 7.663 15.353 0 27.8-3.431 27.8-7.663" fill="#000e23"/></g><path d="M417.087 177.27a5.834 5.834 0 00-9.165 7.22l12.251 15.552a5.834 5.834 0 009.165-7.22z" fill="#ffb85c"/><g clip-path="url(#f)" opacity=".1"><path d="M417.087 177.27a5.834 5.834 0 00-9.165 7.22l12.251 15.552a5.834 5.834 0 009.165-7.22z" fill="#000e23"/></g><path d="M417.677 100.044c-.178-5.308 10.532-7.836 24.096-8.29 13.564-.454 24.845 1.338 25.023 6.645.178 5.308-11.584 14.713-25.148 15.167-13.564.454-23.793-8.214-23.971-13.522" fill="#ffb85c"/><g clip-path="url(#g)" opacity=".1"><path d="M446.718 112.983c7.326-3.881 12.357-10.077 12.219-14.207-.12-3.591-3.88-5.84-9.613-7.023 9.96.373 17.329 2.365 17.473 6.646.155 4.632-8.785 12.384-20.08 14.584" fill="#000e23"/></g><path d="M472.884 206.007l-28.869-95.16m34.75 95.16l-28.87-95.16m-37.172 64.504l72.961 24.288m-76.091-19.309l72.961 24.287" fill="none" stroke="#ffb85c" stroke-width="2.138" stroke-linecap="round" stroke-miterlimit="10"/><path d="M420.384 155.292a25.494 25.494 0 011.842 2.268c7.438 10.343 5.883 24.182-3.474 30.91-9.356 6.73-22.971 3.798-30.41-6.545a25.652 25.652 0 01-1.562-2.469z" fill="#ffb85c"/><g clip-path="url(#h)" opacity=".1"><path d="M418.752 188.47c-.194.14-.4.25-.598.382 4.849-7.311 4.636-17.727-1.274-25.946a25.623 25.623 0 00-1.842-2.267l-27.633 19.87a26.925 26.925 0 01-.625-1.052l33.604-24.164a25.479 25.479 0 011.842 2.267c7.438 10.344 5.883 24.183-3.474 30.91" fill="#000e23"/></g><path d="M401.102 163.99c9.473-6.72 18.358-10.47 19.844-8.374 1.487 2.095-4.987 9.242-14.46 15.963-9.473 6.72-18.358 10.47-19.845 8.375-1.486-2.095 4.988-9.242 14.46-15.963" fill="#fff"/><path d="M205.582 250.558l-8.554-17.82 7.485-5.703z" fill="#ffac99"/><path d="M207.364 262.675s-19.246-66.647 18.176-57.737l2.139-21.74 28.869-2.852 1.069 31.007s9.979 64.152 4.989 70.211c-4.99 6.06-46.332 17.108-55.242-18.889" fill="#ffc2ad"/><path d="M212.213 262.675s-20.247-66.647 13.327-57.737l.872-23.388 29.928-1.204.96 31.007s8.952 64.152 4.476 70.211c-4.477 6.06-41.569 17.108-49.563-18.889" fill="#ffac99"/><path d="M272.586 280.496c-4.39 5.775-9.992 7.168-13.733 7.37-.622 10.797-16.556 11.402-29.035 9.025-16.637-3.17-31.008 10.692-31.008 10.692-4.276-14.97 4.277-22.097 4.277-22.097-3.92.712-9.266 8.197-9.266 8.197-2.14-16.038 13.9-26.374 13.9-26.374-1.07-8.197 4.989-13.9 4.989-13.9l.713-18.533h3.208s-.713 5.703 1.782 12.474c2.494 6.772 8.91.713 7.84-10.335-1.07-11.05-7.128-6.415-7.128-6.415 1.07-8.554 12.118-21.028 12.118-21.028h26.018c26.017 42.412 22.097 62.014 15.325 70.924" fill="#000e23"/><path d="M210.625 255.981c2.596 10.203 7.994 19.894 15.87 26.396 8.347 6.888 19.222 12.07 30.108 11.003-4.918 5.4-16.926 5.388-26.785 3.51-16.637-3.169-31.008 10.692-31.008 10.692-4.276-14.969 4.277-22.097 4.277-22.097-3.92.713-9.266 8.197-9.266 8.197-2.14-16.038 13.9-26.374 13.9-26.374-.64-4.899 1.266-8.895 2.904-11.327" fill="#001f38"/><path d="M224.412 244.62c-.353.356-.712.692-1.086.982-.186.144-.37.285-.563.39-.188.108-.385.2-.55.233a.486.486 0 01-.39-.021c-.048.003-.08-.074-.12-.097-.039-.011-.08-.101-.123-.151a.574.574 0 01-.124-.207l-.117-.246-.18-.594.04.174c-.082-1.422-.164-2.844-.336-4.255a64.304 64.304 0 00-.619-4.223l-.615.907c.305-.097.544-.212.805-.34.255-.13.505-.276.75-.437.243-.167.486-.355.703-.585.106-.131.211-.257.306-.394.083-.163.177-.308.23-.487.033-.188.108-.367.074-.557-.026-.185-.033-.382-.126-.524-.082-.146-.142-.316-.251-.421l-.308-.325c-.104-.101-.232-.163-.345-.244-.118-.072-.226-.156-.348-.215-.245-.113-.496-.211-.735-.311.359.392.705.773.945 1.18l.141.3c.055.096.034.195.06.28.035.09-.028.164-.025.232.008.07-.073.128-.087.189-.037.06-.114.117-.157.177l-.223.166c-.177.1-.354.207-.558.295a6.534 6.534 0 01-.639.23c-.218.06-.46.126-.65.169l-.656.148.041.759c.076 1.422.184 2.84.354 4.253.152 1.413.394 2.817.638 4.22l.025.146.014.028c.13.256.252.506.39.754.2.253.307.503.603.733.14.11.24.236.438.307.183.072.348.169.553.166.199.016.394.026.562-.035.178-.041.34-.098.469-.183.29-.145.49-.35.676-.551.187-.202.339-.416.48-.632.274-.441.483-.903.635-1.382" fill="#ffac99"/><path d="M368.94 106.73s-2.142-5.65.78-7.404c2.923-1.754 20.459-1.559 21.044 3.702.584 5.261-3.702 10.911-8.963 12.275-5.261 1.364-12.86-8.573-12.86-8.573" fill="#3f3e76"/><path d="M387.832 111.428a9.445 9.445 0 00.204-3.14c-.526-4.73-14.758-5.363-19.744-4.167-.25-1.726-.166-3.838 1.428-4.795 2.923-1.753 20.459-1.56 21.043 3.702.328 2.953-.88 6.028-2.931 8.4" fill="#292951"/><path d="M357.834 114.913s13.834 8.379 15.782 7.795c1.95-.586 3.897-1.365 3.897-1.365s2.728 1.56 4.482.78c1.753-.78 9.742-3.898 8.378-5.846-1.364-1.948-5.845-.39-5.845-.39s5.65-1.364 6.624-2.533c0 0 .39-2.533-2.143-2.533s-8.378 2.144-8.378 2.144-7.598-9.937-13.443-9.937c-5.846 0-9.353 11.885-9.353 11.885m-198.092 1.3s-12.037 8.378-13.733 7.794c-1.695-.586-3.39-1.365-3.39-1.365s-2.374 1.56-3.9.78c-1.526-.78-8.477-3.898-7.29-5.846 1.187-1.948 5.086-.39 5.086-.39s-4.917-1.364-5.764-2.533c0 0-.339-2.533 1.865-2.533s7.29 2.143 7.29 2.143 6.612-9.936 11.698-9.936 8.138 11.885 8.138 11.885" fill="#ffc2ad"/><path d="M359.197 119.754c-5.346 0-31.19-9.441-31.19-9.441s-19.246 55.599-35.284 71.637c-16.038 16.038-67.895 11.227-92.487 6.95-15.598-2.712-25.944-23.424-30.815-73.11-10.25 5.339-15.116 7.425-19.485 6.333-11.69-2.923-8.768-17.05-8.768-17.05s19.307-14.422 26.79-16.561c4.577-1.307 16.4-16.724 24.844 38.482-.492-13.154-6.495-39.618-1.12-68.538l104.783-9.622s-3.633 38.364-4.942 67.768c8.398-8.997 17.838-33.192 27.278-33.773 7.769-.478 38.792 9.126 46.277 13.402 7.484 4.277-.535 23.523-5.881 23.523" fill="#ffb85c"/><g clip-path="url(#i)" opacity=".1"><path d="M362.998 115.192c-5.346 0-33.05-10.803-33.05-10.803s-.682 2.236-1.9 5.94l-.042-.017s-16.056 46.38-31.058 66.636c-.141.147-.283.3-.424.44-16.04 16.038-67.895 11.227-92.487 6.95-15.598-2.712-25.944-23.424-30.815-73.11-6.548 3.411-17.023 7.882-24.878 10.385-9.812-3.759-7.176-16.54-7.176-16.54s19.307-14.423 26.79-16.56c4.577-1.309 16.4-16.725 24.844 38.48-.492-13.153-6.495-39.618-1.12-68.537l104.783-9.623s-3.633 38.364-4.942 67.77c8.398-8.999 17.838-33.194 27.278-33.774 7.769-.478 38.792 9.125 46.277 13.402 4.98 2.846 3.094 12.313-.3 18.334-.61.397-1.21.627-1.78.627" fill="#000e23"/></g><path d="M317.766 0h48.6c6.299 12.86 11.924 26.536 11.359 29.588-5.346 28.868-82.305 35.705-82.305 35.705-10.657-3.297-18.02-5.832-29.26-7.139-23.957-2.786-48.058-1.902-72.062-.124 1.246-11.5 3.07-21.753 5.726-28.442h86.542c11.773-6.843 22.145-18.647 31.4-29.588" fill="#000e23"/><path d="M338.164 10.117c0-5.905-4.787-10.692-10.692-10.692H183.88c-5.905 0-10.692 4.787-10.692 10.692V27.45c0 5.905 4.787 10.692 10.692 10.692h143.59c5.906 0 10.693-4.787 10.693-10.692z" fill="#3f3e76"/><g clip-path="url(#j)" opacity=".4"><path d="M290.05 10.02c0-5.852-4.318-10.596-9.643-10.596H182.83c-5.325 0-9.642 4.744-9.642 10.595v16.544c0 5.851 4.317 10.595 9.642 10.595h97.577c5.325 0 9.642-4.744 9.642-10.595z" fill="#000e23"/></g><path d="M290.734 84.833c0-5.43-4.402-9.833-9.833-9.833h-90.463c-5.43 0-9.833 4.403-9.833 9.833v71.78c0 5.431 4.403 9.833 9.833 9.833H280.9c5.43 0 9.833-4.402 9.833-9.833z" fill="#3f3e76"/><g clip-path="url(#k)" opacity=".4"><path d="M279.917 83.868A8.867 8.867 0 00271.05 75h-81.578a8.867 8.867 0 00-8.867 8.867v63.958a8.867 8.867 0 008.867 8.867h81.578a8.867 8.867 0 008.867-8.867z" fill="#000e23"/></g><path d="M241.707 0v106.957a9.341 9.341 0 11-18.682 0V0z" fill="#6a7a8b"/><g clip-path="url(#l)" opacity=".2"><path d="M237.367 0h4.34v106.957c0 3.702-2.158 6.89-5.28 8.402a9.293 9.293 0 00.94-4.061z" fill="#000e23"/></g><path d="M434.662 466.784h-78.205c-5.627 0-10.188-4.561-10.188-10.188V408.6c0-5.627 4.561-10.188 10.188-10.188h35.127l-5.603-20.67h5.603l22.347 20.67h20.731c5.627 0 10.188 4.56 10.188 10.188v47.995c0 5.627-4.56 10.188-10.188 10.188" fill="#a9aedb"/><path d="M429.059 466.784h-78.205c-5.627 0-10.188-4.561-10.188-10.188V408.6c0-5.627 4.56-10.188 10.188-10.188h35.127v-20.67l22.346 20.67h20.732c5.627 0 10.188 4.56 10.188 10.188v47.995c0 5.627-4.561 10.188-10.188 10.188" fill="#fff"/><path d="M367.68 439.008c-1.43 0-2.546-.586-3.347-1.757-.802-1.171-1.202-2.786-1.202-4.845 0-4.28 1.627-6.418 4.883-6.418.983 0 1.936.136 2.86.41.922.274 1.85.603 2.783.989v-5.08c-1.856-.822-3.955-1.233-6.297-1.233-3.357 0-5.93.974-7.72 2.92-1.79 1.948-2.685 4.762-2.685 8.443 0 2.302.434 4.325 1.301 6.069.867 1.744 2.114 3.085 3.742 4.023 1.627.938 3.541 1.407 5.742 1.407 2.403 0 4.7-.522 6.89-1.566l-1.84-4.731a20.88 20.88 0 01-2.464.974 8.637 8.637 0 01-2.647.395m20.003-17.63l-4.548 16.017h-.137c.213-2.728.32-4.847.32-6.358v-9.659h-5.324v22.238h8l4.64-15.789h.122l4.548 15.79h8.016v-22.239h-5.522v9.75c0 .507.008 1.07.023 1.69.015.617.084 2.133.205 4.547h-.136l-4.488-15.987zm34.969 6.754c0-1.38-.35-2.604-1.05-3.673-.699-1.07-1.708-1.902-3.027-2.495-1.318-.593-2.864-.89-4.639-.89-1.48 0-2.723.104-3.726.312-1.004.208-2.049.57-3.134 1.088v5.354a17.918 17.918 0 013.575-1.377c1.237-.33 2.373-.494 3.407-.494.892 0 1.546.154 1.962.464.416.309.624.707.624 1.194 0 .304-.084.57-.25.798-.169.229-.437.459-.807.693-.37.233-1.357.709-2.959 1.429-1.45.66-2.538 1.298-3.263 1.917-.725.619-1.262 1.328-1.612 2.129-.35.8-.525 1.75-.525 2.845 0 2.048.746 3.645 2.236 4.79 1.491 1.147 3.54 1.72 6.145 1.72 2.302 0 4.65-.532 7.043-1.597l-1.84-4.64c-2.079.954-3.874 1.43-5.385 1.43-.78 0-1.349-.136-1.704-.41-.355-.274-.532-.614-.532-1.02 0-.435.225-.826.677-1.171.451-.344 1.675-.973 3.673-1.886 1.917-.862 3.248-1.787 3.993-2.776.745-.988 1.118-2.233 1.118-3.734" fill="#888df4"/><path d="M248.96 378.143h-69.177a9.012 9.012 0 01-9.011-9.012v-42.453c0-4.784 3.73-8.686 8.439-8.983l-4.958-16.907h4.958l18.245 16.878h51.504a9.012 9.012 0 019.011 9.012v42.453a9.012 9.012 0 01-9.012 9.012" fill="#a9aedb"/><path d="M244.003 378.143h-69.176a9.012 9.012 0 01-9.012-9.012v-42.453c0-4.784 3.73-8.686 8.439-8.983v-16.907l18.245 16.878h51.504a9.012 9.012 0 019.012 9.012v42.453a9.012 9.012 0 01-9.012 9.012" fill="#fff"/><path d="M192.3 357.86c-1.766 0-3.145-.723-4.134-2.17-.99-1.447-1.485-3.442-1.485-5.985 0-5.287 2.011-7.93 6.032-7.93 1.216 0 2.393.169 3.534.507 1.14.338 2.286.745 3.44 1.22v-6.275c-2.294-1.015-4.888-1.523-7.782-1.523-4.147 0-7.326 1.203-9.537 3.609-2.21 2.405-3.317 5.882-3.317 10.43 0 2.843.536 5.343 1.607 7.498 1.071 2.155 2.612 3.812 4.623 4.97 2.011 1.159 4.376 1.739 7.094 1.739 2.97 0 5.807-.645 8.513-1.936l-2.274-5.844a25.377 25.377 0 01-3.044 1.202 10.634 10.634 0 01-3.27.489m18.117-10.731h-6.991v5.036h6.99v6.897h5.056v-6.897h6.99v-5.036h-6.99v-6.784h-5.055zm21.78 0h-6.99v5.036h6.99v6.897h5.055v-6.897h6.991v-5.036h-6.99v-6.784h-5.056z" fill="#888df4"/><path d="M272.632 401.063c0-15.314 12.414-27.728 27.728-27.728 15.314 0 27.728 12.414 27.728 27.728 0 15.314-12.414 27.728-27.728 27.728-15.314 0-27.728-12.414-27.728-27.728" fill="#6f79ca"/><path d="M266.71 401.063c0-15.314 12.414-27.728 27.728-27.728 15.314 0 27.728 12.414 27.728 27.728 0 15.314-12.414 27.728-27.728 27.728-15.314 0-27.728-12.414-27.728-27.728" fill="#888df4"/><path d="M281.08 406.33c-1.175 0-2.09-.48-2.747-1.441-.658-.961-.987-2.286-.987-3.976 0-3.512 1.336-5.268 4.008-5.268.807 0 1.59.113 2.346.337.758.225 1.52.495 2.285.812v-4.17c-1.523-.674-3.246-1.011-5.168-1.011-2.755 0-4.867.799-6.336 2.397-1.468 1.598-2.203 3.907-2.203 6.928 0 1.889.356 3.55 1.067 4.98.712 1.433 1.736 2.533 3.071 3.303 1.336.77 2.907 1.155 4.713 1.155 1.972 0 3.857-.43 5.655-1.286l-1.51-3.883c-.675.317-1.349.583-2.023.799a7.048 7.048 0 01-2.172.325m20.398-8.926c0-1.132-.287-2.137-.861-3.015-.575-.878-1.403-1.56-2.485-2.047-1.082-.487-2.351-.73-3.807-.73-1.215 0-2.235.085-3.058.256-.824.17-1.682.468-2.572.892v4.394c.94-.482 1.918-.859 2.934-1.129 1.015-.27 1.947-.406 2.796-.406.732 0 1.269.127 1.61.381.34.253.512.58.512.98 0 .25-.07.468-.206.655-.137.187-.358.376-.662.568-.303.191-1.113.583-2.428 1.173-1.19.541-2.082 1.066-2.677 1.573a4.84 4.84 0 00-1.324 1.748c-.287.657-.43 1.435-.43 2.334 0 1.681.61 2.992 1.835 3.933 1.223.94 2.904 1.41 5.043 1.41 1.889 0 3.816-.437 5.78-1.31l-1.51-3.808c-1.707.782-3.18 1.173-4.42 1.173-.64 0-1.106-.112-1.398-.337-.291-.224-.437-.503-.437-.836 0-.358.186-.678.556-.96.37-.284 1.375-.8 3.015-1.549 1.572-.708 2.665-1.467 3.276-2.278.612-.812.918-1.833.918-3.065m14.755 0c0-1.132-.287-2.137-.86-3.015-.576-.878-1.404-1.56-2.485-2.047-1.082-.487-2.352-.73-3.808-.73-1.215 0-2.234.085-3.058.256-.824.17-1.68.468-2.572.892v4.394c.94-.482 1.918-.859 2.934-1.129 1.015-.27 1.947-.406 2.796-.406.732 0 1.27.127 1.61.381.341.253.512.58.512.98 0 .25-.069.468-.206.655-.137.187-.358.376-.66.568-.305.191-1.115.583-2.43 1.173-1.19.541-2.082 1.066-2.677 1.573-.595.508-1.036 1.09-1.323 1.748-.288.657-.43 1.435-.43 2.334 0 1.681.611 2.992 1.834 3.933 1.223.94 2.904 1.41 5.043 1.41 1.89 0 3.816-.437 5.78-1.31l-1.51-3.808c-1.707.782-3.18 1.173-4.42 1.173-.64 0-1.106-.112-1.398-.337-.29-.224-.437-.503-.437-.836 0-.358.186-.678.556-.96.37-.284 1.375-.8 3.015-1.549 1.573-.708 2.665-1.467 3.277-2.278.611-.812.917-1.833.917-3.065" fill="#fff"/><path d="M128.51 345.439c0 20.629-16.723 37.35-37.351 37.35-20.63 0-37.351-16.721-37.351-37.35 0-20.63 16.722-37.351 37.35-37.351 5.066 0 9.894 1.013 14.298 2.84l4.556-10.75h6.194v17.555c7.556 6.835 12.304 16.715 12.304 27.706" fill="#6f79ca"/><path d="M122.316 345.439c0 20.629-16.724 37.35-37.352 37.35-20.628 0-37.35-16.721-37.35-37.35 0-20.63 16.722-37.351 37.35-37.351 5.066 0 9.894 1.013 14.298 2.84l10.75-10.75v17.555c7.555 6.835 12.303 16.715 12.303 27.706" fill="#888df4"/><path d="M71.755 327.387c-1.457 0-2.84.142-4.15.425v6.213c.433-.081.892-.172 1.377-.273a7.757 7.757 0 011.579-.152c1.322 0 2.267.398 2.833 1.194.567.796.85 2.159.85 4.088v27.383h8.035V339.57c0-4.008-.877-7.04-2.631-9.098-1.754-2.057-4.385-3.086-7.893-3.086m34.163 16.334c0-2.457-.837-4.312-2.51-5.567-1.674-1.254-4.075-1.882-7.205-1.882-1.7 0-3.177.091-4.432.273a18.946 18.946 0 00-3.846 1.002v6.335a23.809 23.809 0 014.039-1.336c1.462-.35 2.768-.526 3.915-.526 1.713 0 2.57.391 2.57 1.174 0 .405-.239.765-.718 1.083-.479.317-1.873.934-4.18 1.851-2.105.864-3.575 1.845-4.412 2.945-.836 1.1-1.254 2.493-1.254 4.18 0 2.131.823 3.791 2.47 4.978 1.645 1.187 3.972 1.781 6.981 1.781 1.511 0 2.931-.165 4.26-.496 1.33-.33 2.71-.813 4.14-1.447l-2.146-5.1a24.09 24.09 0 01-3.34 1.204c-1.174.331-2.132.496-2.874.496-1.295 0-1.943-.317-1.943-.95 0-.392.226-.726.678-1.003.452-.277 1.758-.84 3.917-1.69 1.605-.66 2.803-1.309 3.592-1.943.79-.634 1.37-1.379 1.74-2.236.372-.857.557-1.899.557-3.127" fill="#fff"/><path d="M162.887 478.95h-55.084a7.81 7.81 0 01-7.81-7.811v-55.084a7.81 7.81 0 017.81-7.811h32.388l12.671-15.288h5.096v15.288h4.93a7.81 7.81 0 017.81 7.81v55.085a7.81 7.81 0 01-7.81 7.81" fill="#2a2a5a"/><path d="M157.791 478.95h-55.084a7.81 7.81 0 01-7.81-7.811v-55.084a7.81 7.81 0 017.81-7.811h32.388l17.767-15.288v15.288h4.93a7.81 7.81 0 017.81 7.81v55.085a7.81 7.81 0 01-7.81 7.81" fill="#3f3e76"/><path d="M122.864 434.642l-18.28 8.118v3.11l18.28 9.15v-5.37l-11.21-5.118 11.21-4.556zm17.666 23.596l-9.855-27.176h-6.256l9.854 27.176zm1.374-18.262l11.21 4.557-11.21 5.117v5.37l18.28-9.149v-3.11l-18.28-8.119z" fill="#fff"/><path d="M442.303 318.802h-48.564a6.886 6.886 0 01-6.887-6.887v-29.08a6.886 6.886 0 016.887-6.886l-2.96-13.685h5.196l14.793 13.685h31.535a6.887 6.887 0 016.887 6.886v29.08a6.887 6.887 0 01-6.887 6.887" fill="#2a2a5a"/><path d="M437.107 318.802h-48.564a6.886 6.886 0 01-6.887-6.887v-29.08a6.886 6.886 0 016.887-6.886h2.235v-13.685l14.794 13.685h31.535a6.887 6.887 0 016.887 6.886v29.08a6.887 6.887 0 01-6.887 6.887" fill="#3f3e76"/><path d="M401.95 289.689h-2.169v5.953h-6.089v-5.953h-2.159v13.208h2.16v-5.402h6.088v5.402h2.168zm8.04 0h-2.16v11.356h-3.884v1.852h9.929v-1.852h-3.885zm11.618 0l-3.83 11.03h-.073c.102-1.638.154-3.173.154-4.607v-6.423h-1.961v13.208h3.045l3.668-10.507h.054l3.776 10.507h3.054v-13.208h-2.078v6.532c0 .656.016 1.51.05 2.565.032 1.054.06 1.692.085 1.916h-.072l-3.966-11.013zm11.364 0v13.208h2.16V291.54h5.591v-1.852z" fill="#fff"/><path d="M69.285 266.92c0-10.292 8.345-18.635 18.637-18.635s18.636 8.343 18.636 18.636-8.344 18.637-18.637 18.637c-10.292 0-18.636-8.344-18.636-18.637" fill="#eaa253"/><path d="M65.798 266.92c0-10.292 8.344-18.635 18.637-18.635 10.292 0 18.636 8.343 18.636 18.636s-8.344 18.637-18.636 18.637c-10.293 0-18.637-8.344-18.637-18.637" fill="#ffca75"/><path d="M78.927 267.337c0 2.273.332 4.401.997 6.382.665 1.982 1.623 3.72 2.876 5.212h2.638c-1.193-1.613-2.106-3.42-2.74-5.424a20.212 20.212 0 01-.953-6.144c0-2.094.317-4.122.952-6.087a18.387 18.387 0 012.715-5.327H82.8c-1.26 1.458-2.222 3.161-2.882 5.108-.66 1.947-.99 4.041-.99 6.28m9.007-5.61c0 .626.162 1.107.489 1.44.326.336.798.503 1.415.503.626 0 1.102-.174 1.429-.521.325-.348.489-.822.489-1.422 0-.61-.166-1.092-.496-1.448-.33-.355-.804-.534-1.422-.534-.617 0-1.09.176-1.415.528-.327.35-.49.836-.49 1.454m0 10.989c0 1.295.636 1.943 1.905 1.943.644 0 1.124-.172 1.442-.514.316-.344.476-.82.476-1.43 0-.608-.166-1.091-.496-1.446-.33-.357-.804-.534-1.422-.534-.617 0-1.09.175-1.415.527-.327.352-.49.836-.49 1.454" fill="#3f3e76"/><path d="M364.975 335.4c0 16.416-13.307 29.724-29.723 29.724-16.415 0-29.722-13.308-29.722-29.723 0-15.13 11.308-27.611 25.933-29.474l3.99-12.691h4.638l4 13.779c12.099 3.763 20.884 15.049 20.884 28.386" fill="#eaa253"/><path d="M360.338 335.4c0 16.416-13.307 29.724-29.723 29.724-16.415 0-29.722-13.308-29.722-29.723 0-15.13 11.308-27.611 25.932-29.474l8.63-12.691 4 13.779c12.098 3.763 20.883 15.049 20.883 28.386" fill="#ffca75"/><path d="M315.976 337.267h.768c.633 0 1.136.178 1.51.534.373.355.56.846.56 1.472 0 1.052-.583 1.579-1.75 1.579h-1.088zm7.105 2.027c0-1.743-.514-3.088-1.541-4.038-1.028-.95-2.488-1.424-4.38-1.424h-1.184v-5.174h-4.214v15.597h5.398c1.97 0 3.45-.43 4.438-1.291.989-.861 1.483-2.084 1.483-3.67m15.854-10.637H334.7v6.358h-4.897v-6.358h-4.236v15.597h4.236v-5.782h4.897v5.782h4.235zm7.585 8.61h.768c.633 0 1.136.178 1.51.534.373.355.56.846.56 1.472 0 1.052-.583 1.579-1.75 1.579h-1.088zm7.105 2.027c0-1.743-.514-3.088-1.541-4.038-1.028-.95-2.488-1.424-4.38-1.424h-1.184v-5.174h-4.214v15.597h5.398c1.97 0 3.45-.43 4.438-1.291.989-.861 1.483-2.084 1.483-3.67" fill="#3f3e76"/><path d="M230.539 452.242H196.78a4.787 4.787 0 01-4.787-4.787v-33.758a4.787 4.787 0 014.787-4.787h16.857l9.215-12.24h4.87v12.24h2.816a4.787 4.787 0 014.787 4.787v33.758a4.787 4.787 0 01-4.787 4.787" fill="#eaa253"/><path d="M225.668 452.242H191.91a4.787 4.787 0 01-4.787-4.787v-33.758a4.787 4.787 0 014.787-4.787h16.857l14.086-12.24v12.24h2.815a4.787 4.787 0 014.787 4.787v33.758a4.787 4.787 0 01-4.787 4.787" fill="#ffca75"/><path d="M224.09 418.898a2.58 2.58 0 00-3.648-3.648l-7.181 7.181a2.578 2.578 0 000 3.648 2.578 2.578 0 003.648 0zm-25.904 22.256c-3.047-3.047-3.047-8.004 0-11.05 3.047-3.048 8.004-3.048 11.05 0 3.048 3.046 3.048 8.003 0 11.05-3.046 3.047-8.003 3.047-11.05 0m12.66-12.66c-3.934-3.935-10.335-3.935-14.27 0-3.934 3.933-3.934 10.335 0 14.27 3.935 3.934 10.336 3.934 14.27 0 3.935-3.935 3.935-10.336 0-14.27" fill="#3f3e76"/><path d="M218.671 422.278l-1.609-1.61-7.826 7.826 1.61 1.609z" fill="#3f3e76"/></g></svg>
